# 3ds Max Wavefront OBJ Exporter v0.99 - (c)2007 guruware
# File Created: 12.02.2023 21:56:56

mtllib fase2.mtl

#
# object Plane001
#

v  -46.521652 0.000000 0.455822
v  -46.521652 0.000000 6.778657
v  -36.105316 0.000000 6.778657
v  -36.105316 0.000000 0.455822
v  -25.688976 0.000000 6.778657
v  -25.688976 0.000000 0.455822
v  -15.272637 0.000000 6.778657
v  -15.272637 0.000000 0.455822
v  -4.856298 0.000000 6.778657
v  -4.856298 0.000000 0.455822
v  -46.521652 0.000000 -5.867012
v  -36.105316 0.000000 -5.867012
v  -25.688976 0.000000 -5.867012
v  -15.272637 0.000000 -5.867012
v  -4.856298 0.000000 -5.867012
v  -46.521652 0.000000 -12.189846
v  -36.105316 0.000000 -12.189846
v  -25.688976 0.000000 -12.189846
v  -15.272637 0.000000 -12.189846
v  -4.856298 0.000000 -12.189846
v  -46.521652 0.000000 -18.512680
v  -36.105316 0.000000 -18.512680
v  -25.688976 0.000000 -18.512680
v  -15.272637 0.000000 -18.512680
v  -4.856298 0.000000 -18.512680
# 25 vertices

vn 0.000000 1.000000 -0.000000
# 1 vertex normals

vt 0.000000 0.250000 0.000000
vt 0.000000 0.000000 0.000000
vt 0.250000 0.000000 0.000000
vt 0.250000 0.250000 0.000000
vt 0.500000 0.000000 0.000000
vt 0.500000 0.250000 0.000000
vt 0.750000 0.000000 0.000000
vt 0.750000 0.250000 0.000000
vt 1.000000 0.000000 0.000000
vt 1.000000 0.250000 0.000000
vt 0.000000 0.500000 0.000000
vt 0.250000 0.500000 0.000000
vt 0.500000 0.500000 0.000000
vt 0.750000 0.500000 0.000000
vt 1.000000 0.500000 0.000000
vt 0.000000 0.750000 0.000000
vt 0.250000 0.750000 0.000000
vt 0.500000 0.750000 0.000000
vt 0.750000 0.750000 0.000000
vt 1.000000 0.750000 0.000000
vt 0.000000 1.000000 0.000000
vt 0.250000 1.000000 0.000000
vt 0.500000 1.000000 0.000000
vt 0.750000 1.000000 0.000000
vt 1.000000 1.000000 0.000000
# 25 texture coords

o Plane001
g Plane001
usemtl Material__25
s 1
f -25/-25/-1 -24/-24/-1 -23/-23/-1 -22/-22/-1 
f -22/-22/-1 -23/-23/-1 -21/-21/-1 -20/-20/-1 
f -20/-20/-1 -21/-21/-1 -19/-19/-1 -18/-18/-1 
f -18/-18/-1 -19/-19/-1 -17/-17/-1 -16/-16/-1 
f -15/-15/-1 -25/-25/-1 -22/-22/-1 -14/-14/-1 
f -14/-14/-1 -22/-22/-1 -20/-20/-1 -13/-13/-1 
f -13/-13/-1 -20/-20/-1 -18/-18/-1 -12/-12/-1 
f -12/-12/-1 -18/-18/-1 -16/-16/-1 -11/-11/-1 
f -10/-10/-1 -15/-15/-1 -14/-14/-1 -9/-9/-1 
f -9/-9/-1 -14/-14/-1 -13/-13/-1 -8/-8/-1 
f -8/-8/-1 -13/-13/-1 -12/-12/-1 -7/-7/-1 
f -7/-7/-1 -12/-12/-1 -11/-11/-1 -6/-6/-1 
f -5/-5/-1 -10/-10/-1 -9/-9/-1 -4/-4/-1 
f -4/-4/-1 -9/-9/-1 -8/-8/-1 -3/-3/-1 
f -3/-3/-1 -8/-8/-1 -7/-7/-1 -2/-2/-1 
f -2/-2/-1 -7/-7/-1 -6/-6/-1 -1/-1/-1 
# 16 polygons

